<?xml version="1.0" encoding="utf-8"?><svg viewBox="0 0 2000 597.6" xmlns="http://www.w3.org/2000/svg" xmlns:xlink="http://www.w3.org/1999/xlink"><style>:root>svg{display:none}:root>svg:target{display:block}</style><svg viewBox="0 0 118 163" id="bubble1" xmlns="http://www.w3.org/2000/svg"><circle cx="68" cy="50" r="50"/><circle cx="20" cy="117" r="17" transform="rotate(80.673 20 117)"/><circle cx="54.5" cy="132.5" r="9.5" transform="rotate(90 54.5 132.5)"/><circle cx="9.5" cy="157.5" transform="rotate(90 9.5 157.5)" r="5.5"/><defs><radialGradient id="aa" cx="0" cy="0" r="1" gradientUnits="userSpaceOnUse" gradientTransform="rotate(130.276 40.165 36.529) scale(85.8516)"><stop stop-color="#0583D2"/><stop offset="1" stop-color="#16558F"/></radialGradient><radialGradient id="ab" cx="0" cy="0" r="1" gradientUnits="userSpaceOnUse" gradientTransform="rotate(130.276 -11.073 61.697) scale(29.1896)"><stop stop-color="#0583D2"/><stop offset="1" stop-color="#16558F"/></radialGradient><radialGradient id="ac" cx="0" cy="0" r="1" gradientUnits="userSpaceOnUse" gradientTransform="rotate(130.276 -.076 78.074) scale(16.3118)"><stop stop-color="#0583D2"/><stop offset="1" stop-color="#16558F"/></radialGradient><radialGradient id="ad" cx="0" cy="0" r="1" gradientUnits="userSpaceOnUse" gradientTransform="rotate(130.276 -29.789 80.486) scale(9.44368)"><stop stop-color="#0583D2"/><stop offset="1" stop-color="#16558F"/></radialGradient></defs></svg><svg viewBox="0 0 118 143" id="bubble2" xmlns="http://www.w3.org/2000/svg"><circle cx="48" cy="48" r="48"/><circle cx="95.34" cy="99.34" r="17" transform="rotate(156.687 95.34 99.34)"/><circle cx="58.673" cy="106.022" r="7.549" transform="rotate(-155.144 58.673 106.022)"/><circle cx="45.301" cy="126.301" r="4.745" transform="rotate(-155.144 45.3 126.301)"/><circle cx="74.824" cy="136.824" r="4.387" transform="rotate(-155.144 74.824 136.824)"/><defs><radialGradient id="ba" cx="0" cy="0" r="1" gradientUnits="userSpaceOnUse" gradientTransform="rotate(130.276 29.919 31.064) scale(82.4176)"><stop stop-color="#0583D2"/><stop offset="1" stop-color="#16558F"/></radialGradient><radialGradient id="bb" cx="0" cy="0" r="1" gradientUnits="userSpaceOnUse" gradientTransform="rotate(130.276 30.689 70.322) scale(29.1896)"><stop stop-color="#0583D2"/><stop offset="1" stop-color="#16558F"/></radialGradient><radialGradient id="bc" cx="0" cy="0" r="1" gradientUnits="userSpaceOnUse" gradientTransform="rotate(130.276 7.452 65.967) scale(12.9613)"><stop stop-color="#0583D2"/><stop offset="1" stop-color="#16558F"/></radialGradient><radialGradient id="bd" cx="0" cy="0" r="1" gradientUnits="userSpaceOnUse" gradientTransform="rotate(130.276 -4.928 73.245) scale(8.14803)"><stop stop-color="#0583D2"/><stop offset="1" stop-color="#16558F"/></radialGradient><radialGradient id="be" cx="0" cy="0" r="1" gradientUnits="userSpaceOnUse" gradientTransform="rotate(130.276 7.269 85.377) scale(7.53211)"><stop stop-color="#0583D2"/><stop offset="1" stop-color="#16558F"/></radialGradient></defs></svg><svg viewBox="0 0 502.664 502.664" id="icon" xmlns="http://www.w3.org/2000/svg"><path d="M153.821 358.226L0 274.337v-46.463l153.821-83.414v54.574L46.636 250.523l107.185 53.431v54.272zm26.273 29.358L282.103 115.08h32.227L212.084 387.584h-31.99zm168.749-29.358v-54.272l107.164-52.999-107.164-52.59v-53.927l153.821 83.522v46.183l-153.821 84.083z"/></svg><svg viewBox="0 0 512 153" preserveAspectRatio="xMidYMid" id="upwork" xmlns="http://www.w3.org/2000/svg"><path d="M140.107 96.628c-8.321 0-16.118-3.523-23.202-9.258l1.725-8.096.075-.3c1.536-8.62 6.409-23.089 21.402-23.089 11.244 0 20.39 9.146 20.39 20.39-.038 11.207-9.183 20.353-20.39 20.353zm0-61.395c-19.154 0-33.996 12.444-40.03 32.909-9.221-13.831-16.193-30.435-20.278-44.416H59.184v53.636c0 10.57-8.621 19.19-19.191 19.19-10.57 0-19.19-8.62-19.19-19.19V23.726H.186v53.636c-.075 21.965 17.804 39.993 39.768 39.993 21.965 0 39.844-18.028 39.844-39.993v-8.995c4.01 8.358 8.92 16.791 14.88 24.288l-12.632 59.37h21.103l9.145-43.066c8.021 5.135 17.242 8.359 27.812 8.359 22.601 0 41.005-18.516 41.005-41.118 0-22.564-18.404-40.967-41.005-40.967zM244.043 37.557l13.306 53.636 14.656-53.636h17.466l-22.526 77.512h-17.467l-13.83-53.974-13.794 53.936h-17.466L181.86 37.52h17.467l14.655 53.636 13.306-53.636h16.754v.038zm87.22-2.324c-22.676 0-41.042 18.403-41.042 41.042 0 22.677 18.403 41.043 41.042 41.043 22.677 0 41.08-18.366 41.08-41.043 0-22.676-18.403-41.042-41.08-41.042zm0 65.218c-13.343 0-24.138-10.795-24.138-24.138 0-13.344 10.832-24.138 24.138-24.138 13.344 0 24.138 10.794 24.138 24.138 0 13.306-10.794 24.138-24.138 24.138zm90.968-45.54c-11.731 0-21.214 9.52-21.214 21.214v38.906h-17.58V37.557h17.58v11.919s7.496-11.957 22.901-11.957h5.397v17.392h-7.084zm58.997 18.366c12.48-7.047 20.952-20.428 20.952-35.758H484.6c0 12.931-10.494 23.426-23.425 23.426h-2.362V.15h-17.578v114.88h17.578V78.524h2.1c1.724 0 3.973 1.125 4.985 2.511l24.962 33.996h21.065l-30.697-41.754z"/></svg></svg>